<svg xmlns="http://www.w3.org/2000/svg" xmlns:xlink="http://www.w3.org/1999/xlink" id="Layer_1" x="0px" y="0px" viewBox="0 0 512 512" style="enable-background:new 0 0 512 512;" xml:space="preserve"><style type="text/css">	.st0{fill-rule:evenodd;clip-rule:evenodd;fill:#FFFFFF;}	.st1{fill:none;stroke:#FFFFFF;stroke-width:10;stroke-miterlimit:10;}</style><g>	<path class="st0" d="M217.6,105c-20.3,10.6-37,19.6-37,19.8c0,1,48.7,25.7,50.5,25.6c0.8,0,6.4-2.6,12.7-5.9l11.4-5.9l12.4,6.2  l12.4,6.2l19.9-9.2c30.4-13.6,33.3-15.1,32.9-15.5c-0.6-0.6-11.6-6.4-41.1-21.9c-14.1-7.4-28.1-14.8-30.8-16.4  c-2.6-1.4-5.2-2.6-5.6-2.6C255.1,85.6,238.2,94.4,217.6,105L217.6,105z M128.7,151.1l-20.9,11V210c0,26.4,0.3,47.9,0.6,47.9  c0.4,0,10.7-4.4,23-10l22.6-10v-50.7l11,6.2c8.3,4.5,17,9.3,25.6,13.7l14.4,7.9l6.4-2.8c4-1.8,8.2-3.5,12.2-5.4  c3-1.4,10.7-5,17-7.6c6.2-2.8,12-5.4,12.7-6.2c1-0.8-12.2-8.2-48.7-27c-27.5-14.1-51.3-25.7-52.3-25.7  C150.6,140.1,140.3,145.1,128.7,151.1L128.7,151.1z M336.7,154.1c-14.4,6.4-26.1,12.2-26.1,12.4c0,0.4,7.9,5,17.4,10.3  c9.3,5.4,17.4,10.2,17.4,10.6s-8.3,4.4-18.8,9.2c-10.3,4.5-36.6,16.5-58.3,26.4l-72.7,32.9c-18.2,8.3-34.9,15.8-36.6,16.5  c-37.3,17-47.6,21.8-48.9,22.6c-1.4,0.8-1.8,5.4-2,29.1l-0.4,28.1l18.9,9.6l18.8,9.8l26.1-11.7c14.4-6.4,26.1-12.2,26.1-12.6  c0-0.4-2.6-2.1-5.9-4c-3.2-1.6-10-5.4-15-8.3c-5-2.8-10-5.6-11-5.9c-1-0.4-2-1-2-1.4c0-0.4,11.6-5.9,25.7-12.2  c27.4-12.2,48.6-21.8,93.2-41.9c19.9-9.2,40.4-18.2,60.3-27.4c17.5-7.9,38.3-17.2,45.7-20.6l13.6-6.2l0.3-28.5l0.3-28.5l-19.2-10  c-10.6-5.4-19.6-10-19.9-9.8C363,142.3,351,147.5,336.7,154.1L336.7,154.1z M397.2,257.1c-2.8,1.4-8.3,4-12.4,5.6  c-4,1.8-11.6,5.2-16.8,7.6l-9.3,4.4l-0.3,25c-0.3,13.7-0.6,25-1.1,25c-1.1-0.3-18.9-9.3-37.3-18.9c-13-6.9-13.7-7.2-17-5.6  c-1.8,0.8-12.4,5.6-23.6,10.6c-11.2,5-20.6,9.3-20.9,9.8c-0.4,0.4,21.9,12.6,50,27.1l50.7,26.4l21.8-11.2  c12-6.2,21.9-11.7,22.6-12.6c1-1.6,1-95.6,0-95.2C402.6,254.5,400,255.7,397.2,257.1L397.2,257.1z M277,367.4  c-4,1.6-7.4,3.2-11.4,5c-11.4,5-9.2,5-22.7-1.6c-9-4.4-13-5.9-14.6-5.2c-1.1,0.4-12.2,5.4-24,11c-12,5.4-22.3,10-22.7,10  c-5,0,3.4,5,35.6,21.3l38,18.9l16-7.9c8.8-4.2,26.6-13,39.4-19.2c13-6.2,23.3-11.6,23-11.7c-0.3-0.3-11-5.6-24-12.4l-23.7-12  L277,367.4z"></path>	<circle class="st1" cx="256" cy="256" r="246.8"></circle></g></svg>