<svg xmlns="http://www.w3.org/2000/svg" xmlns:xlink="http://www.w3.org/1999/xlink" id="Layer_1" x="0px" y="0px" viewBox="0 0 512 512" style="enable-background:new 0 0 512 512;" xml:space="preserve"><style type="text/css">	.st0{fill:none;stroke:#FFFFFF;stroke-width:10;stroke-miterlimit:10;}	.st1{fill:#FEFEFE;}</style><g>	<circle class="st0" cx="256" cy="256" r="246.8"></circle>	<path class="st1" d="M403.6,149.6c-1.5,12.2-5,25.7-7.9,39.3c-14.1,66.9-28.4,133.8-42.6,200.6c-4.3,20.2-15.3,24.5-31.9,12.3  c-22.6-16.6-45.2-33.2-67.7-50c-3.6-2.7-5.7-3.1-9.2,0.4c-10.6,10.8-21.7,21.1-32.6,31.6c-1.1,1.1-2.2,2.3-3.5,3.3  c-3.2,2.5-7.2,5.5-10.7,3.7c-2.7-1.4-0.8-6.2-0.6-9.4c1.4-20.7,3-41.3,4.2-62c0.2-4.1,1.6-6.9,4.7-9.6  c44.5-40.1,89-80.3,133.4-120.4c0.9-0.8,1.9-1.5,2.6-2.4c1.4-1.7,4.8-3.1,3.2-5.6c-1.8-2.8-5-1.6-7.6-0.5c-2.4,1-4.6,2.4-6.8,3.8  c-55.4,34.8-110.8,69.7-166.1,104.7c-4.1,2.6-7.5,3.3-12.1,1.8c-22.1-7.2-44.3-13.9-66.5-21c-6.2-2-14.2-3.2-14.4-11.2  c-0.2-7.9,7.5-10.7,13.7-13.2c27.7-10.9,55.6-21.6,83.4-32.3c69.7-26.9,139.4-53.7,209.1-80.6c1.1-0.4,2.2-0.9,3.3-1.3  C394.7,126.7,404.1,133.5,403.6,149.6z"></path></g></svg>