<svg xmlns="http://www.w3.org/2000/svg" xmlns:xlink="http://www.w3.org/1999/xlink" id="Layer_1" x="0px" y="0px" viewBox="0 0 512 512" style="enable-background:new 0 0 512 512;" xml:space="preserve"><style type="text/css">	.st0{fill:#FFFFFF;}	.st1{fill:none;stroke:#FFFFFF;stroke-width:10;stroke-miterlimit:10;}</style><g>	<path class="st0" d="M395.2,383.9c-35.7-48.2-71.8-96.3-108-144.2c-3.6-4.8-3.4-7.3,0.6-10.8c31.4-33.6,62.5-67,93.4-100.7  c1.4-2.2,4.2-3.4,4.4-6.8c-3.8,0-8,0.6-11.7,0c-8.6-1.4-14.4,2.2-20.3,8.2c-25.7,27.9-51.8,55.8-77.2,83.9c-4.2,4.4-6,4.4-9.5-0.6  c-21.3-28.9-42.9-58.1-64.5-86.5c-1.8-2.2-2.6-5.2-6.8-5.2H114c0.4,3.8,2.6,5.7,4.4,7.6c33.7,45.1,67.4,90.3,101.4,135.3  c3.4,4.4,3.4,6.8-0.6,10.8c-33.7,36.2-67.4,72.2-100.7,108.7c-2.2,1.8-3.6,4.2-6,7c5.7,0,9.8-0.6,13.7,0c8,1,13.3-2.2,18.5-8  c27.9-31.1,57-61.9,85.5-92.5c1.8-1.8,3-4.2,6-4.8c1.8,2.2,3.6,4.4,5.2,6.8c23.1,31.1,46.4,61.9,69.3,92.7c3.4,4.2,6,5.7,11.7,5.7  c23.7-0.4,47-0.4,70.6-0.4c2.2,0,4.4,1.2,6.8-0.4C398.2,387.8,396.6,385.8,395.2,383.9z M326,372.1c-2.2,0-3-1.8-4.2-3  c-56.8-76-113.4-151.8-171.6-229.3h36.3c2.6,0,4.2,1.4,5.7,3.4c56.5,75.6,113.2,150.9,169.6,226.6c0.4,0,0,0.6,0.4,2.2H326  L326,372.1z"></path>	<circle class="st1" cx="256" cy="256" r="246.8"></circle></g></svg>